<svg width="13" height="19" viewBox="0 0 13 19" fill="none" xmlns="http://www.w3.org/2000/svg">
<path d="M3.71429 17.6C3.71429 18.095 4.13214 18.5 4.64286 18.5H8.35714C8.86786 18.5 9.28571 18.095 9.28571 17.6V16.7H3.71429V17.6ZM6.5 0.5C2.91571 0.5 0 3.326 0 6.8C0 8.942 1.105 10.823 2.78571 11.966V14C2.78571 14.495 3.20357 14.9 3.71429 14.9H9.28571C9.79643 14.9 10.2143 14.495 10.2143 14V11.966C11.895 10.823 13 8.942 13 6.8C13 3.326 10.0843 0.5 6.5 0.5ZM9.14643 10.49L8.35714 11.03V13.1H4.64286V11.03L3.85357 10.49C2.6 9.644 1.85714 8.267 1.85714 6.8C1.85714 4.316 3.93714 2.3 6.5 2.3C9.06286 2.3 11.1429 4.316 11.1429 6.8C11.1429 8.267 10.4 9.644 9.14643 10.49Z" fill="#FAB60F"/>
</svg>
